PathFileType	4	(X/Y/Z)	C:/Users/opensim2020/Desktop/walking_exp_matlab/subject03_walking08_straight_04.trc																																																																																																																																																							
DataRate	CameraRate	NumFrames	NumMarkers	Units	OrigDataRate	OrigDataStartFrame	OrigNumFrames																																																																																																																																																			
100	100	4	51	mm	100	3503	303																																																																																																																																																			
Frame#	Time	LFHD			RFHD			LBHD			RBHD			C7			T10			CLAV			STRN			RBAK			LSHO			LUPA			LELB			LFRM			LWRA			LWRB			LFIN			RSHO			RUPA			RELB			RFRM			RWRA			RWRB			RFIN			LASI			RASI			LPSI			RPSI			LTHI			LKNE			LTIB			LANK			LHEE			LTOE			RTHI			RKNE			RTIB			RANK			RHEE			RTOE			*39			*40			*41			*42			*43			*44			*45			*46			*47			*48			*49			*50		
		X1	Y1	Z1	X2	Y2	Z2	X3	Y3	Z3	X4	Y4	Z4	X5	Y5	Z5	X6	Y6	Z6	X7	Y7	Z7	X8	Y8	Z8	X9	Y9	Z9	X10	Y10	Z10	X11	Y11	Z11	X12	Y12	Z12	X13	Y13	Z13	X14	Y14	Z14	X15	Y15	Z15	X16	Y16	Z16	X17	Y17	Z17	X18	Y18	Z18	X19	Y19	Z19	X20	Y20	Z20	X21	Y21	Z21	X22	Y22	Z22	X23	Y23	Z23	X24	Y24	Z24	X25	Y25	Z25	X26	Y26	Z26	X27	Y27	Z27	X28	Y28	Z28	X29	Y29	Z29	X30	Y30	Z30	X31	Y31	Z31	X32	Y32	Z32	X33	Y33	Z33	X34	Y34	Z34	X35	Y35	Z35	X36	Y36	Z36	X37	Y37	Z37	X38	Y38	Z38	X39	Y39	Z39	X40	Y40	Z40	X41	Y41	Z41	X42	Y42	Z42	X43	Y43	Z43	X44	Y44	Z44	X45	Y45	Z45	X46	Y46	Z46	X47	Y47	Z47	X48	Y48	Z48	X49	Y49	Z49	X50	Y50	Z50	X51	Y51	Z51
																																																																																																																																																										
152	1.51	-120.25511	1625.92419	-1502.01404	-135.45227	1632.90247	-1370.00244	-246.05237	1576.6217	-1510.03357	-256.1246	1583.51965	-1379.48853	-278.80493	1421.53796	-1451.26233	-310.80273	1108.25781	-1450.58887	-156.26402	1345.7511	-1440.31543	-112.89631	1180.92249	-1439.75073	-337.18378	1247.0354	-1354.92896	-189.66481	1379.84839	-1599.30164	-192.34123	1180.83667	-1666.15161	-185.71565	1057.60327	-1675.54382	-153.68059	931.32092	-1673.19446	-125.84635	816.11359	-1640.86609	-152.96101	817.59668	-1690.08813	-136.40019	734.37323	-1676.60168	-212.44186	1371.09692	-1284.81873	-200.98456	1147.89404	-1214.87073	-177.67775	1037.78442	-1202.18896	-142.62515	905.52252	-1202.41443	-94.2854	818.52515	-1237.35803	-129.57854	805.86609	-1198.05676	-91.90017	742.26959	-1206.33728	-137.87947	946.72589	-1554.71899	-157.692	939.07715	-1317.46204	-303.48352	972.28113	-1519.20166	-313.24756	972.81458	-1369.57947	-176.55322	645.96167	-1595.49951	-153.83624	470.34372	-1548.42261	-182.86354	278.444	-1548.78638	-180.00157	69.79826	-1505.30701	-219.98013	35.18109	-1469.4668	-26.55783	35.97923	-1475.75293	-210.01918	641.31268	-1269.93347	-185.28052	461.92184	-1290.20105	-328.23068	334.63721	-1290.36633	-486.38126	189.59636	-1337.04089	-532.99017	201.9341	-1394.1228	-434.60992	55.61331	-1354.31421	NaN	NaN	NaN	NaN	NaN	NaN	NaN	NaN	NaN	NaN	NaN	NaN	NaN	NaN	NaN	NaN	NaN	NaN	NaN	NaN	NaN	NaN	NaN	NaN	NaN	NaN	NaN	NaN	NaN	NaN	NaN	NaN	NaN	NaN	NaN	NaN
153	1.52	-112.7819	1626.17395	-1502.42322	-128.10693	1633.09875	-1370.46289	-238.17929	1576.45117	-1509.91602	-248.61078	1583.4425	-1379.91541	-271.02985	1421.76563	-1451.98364	-303.43185	1108.4491	-1451.3927	-148.84752	1345.69226	-1440.62012	-105.51416	1180.89075	-1440.09485	-330.43262	1246.94006	-1356.63538	-181.55222	1379.61658	-1599.7207	-182.07205	1180.7395	-1667.0603	-174.03342	1057.62073	-1676.80859	-140.54291	931.72888	-1674.25024	-112.38136	816.73547	-1641.59778	-138.31773	818.17572	-1691.50549	-120.45129	735.32196	-1678.13892	-205.73158	1370.49792	-1285.08728	-195.19316	1146.92456	-1215.81396	-172.14728	1036.7406	-1203.08203	-138.3707	904.13556	-1202.88879	-90.34025	816.77209	-1237.08643	-126.29913	804.43799	-1198.39929	-88.81682	740.79181	-1205.72375	-130.2384	947.13263	-1555.46143	-150.3864	938.79541	-1317.89404	-296.0112	972.31018	-1519.66418	-305.99304	972.14246	-1370.27051	-169.37566	646.32654	-1595.29602	-149.15179	470.37433	-1548.72375	-180.25523	278.44174	-1548.94092	-180.01161	69.84177	-1505.04321	-219.93866	35.16795	-1469.40283	-26.49611	35.92963	-1475.69165	-198.04118	641.74261	-1270.72473	-168.70543	463.02252	-1290.48169	-311.69427	336.33551	-1290.09973	-470.04956	191.71756	-1336.07959	-517.12146	202.66446	-1393.34302	-416.66467	58.32264	-1350.35962	NaN	NaN	NaN	NaN	NaN	NaN	NaN	NaN	NaN	NaN	NaN	NaN	NaN	NaN	NaN	NaN	NaN	NaN	NaN	NaN	NaN	NaN	NaN	NaN	NaN	NaN	NaN	NaN	NaN	NaN	NaN	NaN	NaN	NaN	NaN	NaN
154	1.53	-105.33244	1626.38513	-1502.8009	-120.697	1633.29175	-1370.85046	-230.90308	1576.47278	-1510.78699	-241.06187	1583.42761	-1380.33069	-263.31033	1422.0553	-1452.49219	-296.25604	1108.72717	-1451.9425	-142.48763	1345.30432	-1440.73425	-98.24822	1180.84497	-1440.48523	-323.77081	1246.8551	-1358.27649	-173.52448	1379.39844	-1600.12415	-171.94151	1180.79224	-1667.85168	-162.2094	1057.93164	-1678.05408	-127.36163	932.32019	-1675.26965	-98.50333	817.6369	-1642.41162	-123.43908	818.89197	-1692.7356	-104.27032	736.53943	-1679.73303	-199.14597	1369.88086	-1285.27747	-189.46843	1146.03296	-1216.74841	-166.67273	1035.78064	-1203.9845	-134.07658	902.84454	-1203.3396	-86.40212	815.1228	-1236.91211	-122.96536	803.12891	-1198.68921	-85.68835	739.51343	-1205.10547	-122.81963	947.49963	-1556.34375	-143.07954	938.755	-1318.50928	-288.75992	972.48914	-1520.16003	-298.69373	971.74109	-1370.89404	-162.01872	646.51904	-1594.83496	-144.58636	470.28925	-1548.82507	-177.64626	278.4693	-1548.97998	-179.65504	69.95288	-1504.99524	-219.93929	35.28312	-1469.31787	-26.18337	35.89966	-1475.7998	-185.75986	642.27197	-1271.28491	-152.34593	464.45398	-1290.69617	-294.72061	337.71432	-1290.07043	-453.20355	192.89461	-1335.02039	-500.69077	202.3259	-1392.56824	-397.7673	60.23999	-1347.22168	NaN	NaN	NaN	NaN	NaN	NaN	NaN	NaN	NaN	NaN	NaN	NaN	NaN	NaN	NaN	NaN	NaN	NaN	NaN	NaN	NaN	NaN	NaN	NaN	NaN	NaN	NaN	NaN	NaN	NaN	NaN	NaN	NaN	NaN	NaN	NaN
155	1.54	-97.9164	1626.54236	-1503.15283	-113.29926	1633.45435	-1371.17566	-223.35979	1576.3783	-1511.17017	-233.55475	1583.20813	-1380.39148	-255.71849	1422.34973	-1453.05005	-288.99582	1108.95386	-1452.52844	-135.13536	1345.33447	-1440.97205	-90.99982	1180.85571	-1440.83179	-317.05661	1246.81921	-1359.8208	-165.62895	1379.40417	-1600.46826	-161.92113	1181.00854	-1668.63745	-150.38644	1058.37	-1679.08936	-114.19386	933.14697	-1676.15161	-85.19932	818.59625	-1643.01758	-108.57909	819.92554	-1693.94141	-87.9725	738.11133	-1681.30481	-192.49431	1369.45667	-1285.47656	-183.93533	1145.30432	-1217.57117	-161.27922	1035.01184	-1204.7395	-129.69023	901.77014	-1203.82654	-82.51511	813.66193	-1236.80554	-119.42503	801.9624	-1198.89392	-82.46772	738.39557	-1204.69592	-115.54572	947.83722	-1557.23291	-135.70557	939.07605	-1319.17798	-281.48203	972.59784	-1520.69043	-291.39456	971.64874	-1371.46655	-155.96176	646.56476	-1595.29529	-139.93985	470.12823	-1548.9314	-174.9892	278.46838	-1548.93555	-179.41968	70.04937	-1504.75916	-219.86952	35.28621	-1469.17786	-26.0712	35.8299	-1475.7041	-173.43758	642.94226	-1271.90662	-136.27254	466.03503	-1291.1554	-277.81439	338.91608	-1290.09705	-435.50476	192.9301	-1334.12109	-483.63846	200.97081	-1391.69531	-377.15359	62.05784	-1344.13977	NaN	NaN	NaN	NaN	NaN	NaN	NaN	NaN	NaN	NaN	NaN	NaN	NaN	NaN	NaN	NaN	NaN	NaN	NaN	NaN	NaN	NaN	NaN	NaN	NaN	NaN	NaN	NaN	NaN	NaN	NaN	NaN	NaN	NaN	NaN	NaN
